<svg width="25" height="12" viewBox="0 0 25 12" fill="none" xmlns="http://www.w3.org/2000/svg">
<path opacity="0.35" d="M0.5 3.00016C0.5 1.80354 1.47005 0.833496 2.66667 0.833496H19.3333C20.53 0.833496 21.5 1.80355 21.5 3.00016V9.00016C21.5 10.1968 20.53 11.1668 19.3333 11.1668H2.66667C1.47005 11.1668 0.5 10.1968 0.5 9.00016V3.00016Z" stroke="#333333"/>
<path opacity="0.4" d="M23 4V8C23.8047 7.66122 24.328 6.87313 24.328 6C24.328 5.12687 23.8047 4.33878 23 4Z" fill="#333333"/>
<path d="M2 3.66683C2 2.93045 2.59695 2.3335 3.33333 2.3335H18.6667C19.403 2.3335 20 2.93045 20 3.66683V8.3335C20 9.06987 19.403 9.66683 18.6667 9.66683H3.33333C2.59695 9.66683 2 9.06988 2 8.3335V3.66683Z" fill="#333333"/>
</svg>
