<svg width="73" height="73" viewBox="0 0 73 73" fill="none" xmlns="http://www.w3.org/2000/svg">
<ellipse cx="51.2747" cy="51.2758" rx="21.6932" ry="21.6933" fill="#333333"/>
<path d="M6.35379 37.0333C2.28553 32.965 8.68738e-07 27.4472 0 21.6938C-8.68738e-07 15.9404 2.28552 10.4226 6.35378 6.35432C10.422 2.28603 15.9398 0.000490956 21.6932 0.000488281C27.4466 0.000485606 32.9643 2.28602 37.0326 6.3543L29.3629 14.024C27.3288 11.9899 24.5699 10.8471 21.6932 10.8471C18.8165 10.8471 16.0576 11.9899 14.0235 14.0241C11.9894 16.0582 10.8466 18.8171 10.8466 21.6938C10.8466 24.5705 11.9894 27.3294 14.0235 29.3635L6.35379 37.0333Z" fill="#FFAD31"/>
<path d="M2.1041 70.8963C-0.668462 68.1237 -0.716771 63.5801 2.05579 60.8076L60.8076 2.05544C63.5802 -0.71714 68.1237 -0.668833 70.8962 2.10374C73.6688 4.87632 73.7171 9.41987 70.9446 12.1924L12.1927 70.9446C9.42019 73.7171 4.87666 73.6688 2.1041 70.8963Z" fill="#333333"/>
<ellipse cx="51.0776" cy="51.0786" rx="10.8466" ry="10.8467" fill="#FFAD31"/>
</svg>
